<?xml version="1.0" encoding="UTF-8" standalone="no"?>
<!-- Created with Inkscape (http://www.inkscape.org/) -->

<svg
   width="30.479965mm"
   height="128.5mm"
   viewBox="0 0 30.479965 128.5"
   version="1.1"
   id="svg5"
   inkscape:version="1.2.1 (9c6d41e410, 2022-07-14)"
   sodipodi:docname="010Map.svg"
   xml:space="preserve"
   xmlns:inkscape="http://www.inkscape.org/namespaces/inkscape"
   xmlns:sodipodi="http://sodipodi.sourceforge.net/DTD/sodipodi-0.dtd"
   xmlns:xlink="http://www.w3.org/1999/xlink"
   xmlns="http://www.w3.org/2000/svg"
   xmlns:svg="http://www.w3.org/2000/svg"
   xmlns:rdf="http://www.w3.org/1999/02/22-rdf-syntax-ns#"
   xmlns:cc="http://creativecommons.org/ns#"><sodipodi:namedview
     id="namedview7"
     pagecolor="#ffffff"
     bordercolor="#999999"
     borderopacity="1"
     inkscape:showpageshadow="0"
     inkscape:pageopacity="0"
     inkscape:pagecheckerboard="0"
     inkscape:deskcolor="#d1d1d1"
     inkscape:document-units="mm"
     showgrid="false"
     inkscape:zoom="1.4142136"
     inkscape:cx="-68.942909"
     inkscape:cy="257.38686"
     inkscape:window-width="1920"
     inkscape:window-height="1017"
     inkscape:window-x="-8"
     inkscape:window-y="-8"
     inkscape:window-maximized="1"
     inkscape:current-layer="layer2"><inkscape:grid
       type="xygrid"
       id="grid2071"
       originx="2.0481652e-06"
       originy="0"
       units="mm" /></sodipodi:namedview><defs
     id="defs2"><linearGradient
       inkscape:collect="always"
       id="linearGradient1926"><stop
         style="stop-color:#090909;stop-opacity:1;"
         offset="0"
         id="stop1922" /><stop
         style="stop-color:#282828;stop-opacity:1;"
         offset="1"
         id="stop1924" /></linearGradient><linearGradient
       inkscape:collect="always"
       xlink:href="#linearGradient1926"
       id="linearGradient926"
       x1="0"
       y1="128.5"
       x2="30.237511"
       y2="0"
       gradientUnits="userSpaceOnUse" /></defs><g
     inkscape:label="panel"
     inkscape:groupmode="layer"
     id="layer1"
     style="display:inline"><rect
       style="display:inline;fill:url(#linearGradient926);fill-opacity:1;stroke-width:8.91272;paint-order:stroke fill markers"
       id="rect2069"
       width="30.479959"
       height="128.49983"
       x="-3.2698213e-07"
       y="6.8532444e-07"
       ry="0"
       rx="0" /><path
       id="rect1901"
       style="display:inline;fill:#000000;fill-opacity:1;stroke-width:8.91272;paint-order:stroke fill markers"
       d="M 2.6531526,1.6585e-4 3.2510486,2.2589428 8.460498e-5,3.1188382 v 0.664559 L 3.4153796,2.8800932 l 0.330213,1.248503 0.659908,2.496488 -3.062346,0.80977 -0.165364,-0.623735 1.531172,-0.405143 -0.164847,-0.624251 -1.531173,0.405143 -0.330213,-1.248502 -0.612882,0.162264 0.330212,1.248502 -0.39997499502,0.105937 v 0.667143 L 0.5654246,6.9728672 0.7302726,7.5971182 8.460498e-5,7.7903882 v 0.671277 L 0.8961536,8.2244702 l 0.330213,1.248502 0.612882,-0.161747 -0.330212,-1.248502 5.2064,-1.377177 3.6752284,-0.972034 -0.164848,-0.624251 -3.6752284,0.972033 -1.531172,0.405144 L 4.3589916,3.9699492 4.0287796,2.7219636 5.5599516,2.3168204 5.3951036,1.6925691 3.8634146,2.0977123 3.3089266,1.6585e-4 Z m 7.8646364,0 0.08372,0.315743 0.330212,1.24850265 -1.5311724,0.4046265 0.164847,0.6242513 1.5316904,-0.4051433 0.660425,2.4964882 0.612366,-0.162264 -0.660425,-2.4964882 6.73809,-1.78180345 0.660425,2.49648865 0.659908,2.495972 0.165364,0.624251 1.531173,-0.4051431 0.330212,1.248502 0.660425,2.4964891 -1.531173,0.404626 0.164848,0.6242518 1.531173,-0.4051439 0.330212,1.2485029 -1.531172,0.405143 0.164847,0.623735 3.675228,-0.972034 -0.164847,-0.623734 -1.531173,0.404626 -0.330213,-1.2485029 3.062346,-0.809769 0.330212,1.2485019 0.612883,-0.1622639 -0.330213,-1.248502 3.571875,-0.944646 v -0.667659 l -0.06201,0.01654 -0.659908,-2.496488 -0.330213,-1.248503 1.052132,-0.278019 V 2.4036368 L 29.262387,2.7255812 28.602479,0.22909245 28.542019,1.6585e-4 h -0.655774 l 0.102836,0.3886067 0.660425,2.49597165 -6.73809,1.78232 L 21.250991,2.1710928 20.676866,1.6585e-4 h -0.655257 l 0.61805,2.33629155 0.659908,2.4959718 -0.918807,0.242879 -0.660425,-2.4959716 -0.659908,-2.49648845 0.312126,-0.082682 H 16.830072 L 11.543573,1.3985305 11.213361,0.15002775 11.173571,1.6615e-4 Z m 1.239718,4.68446835 0.329696,1.247986 -5.2064014,1.377177 -3.675228,0.972034 0.164848,0.624251 3.675228,-0.972034 1.531689,-0.405143 0.659908,2.4964888 0.330213,1.248502 -1.531173,0.405144 0.164848,0.623734 1.531689,-0.405143 0.6604254,2.496488 0.329696,1.247986 -3.0623464,0.810287 -0.330212,-1.247986 -0.612366,0.161747 0.329696,1.248503 -5.206401,1.377177 -1.84123099502,0.486792 v 0.668176 L 2.0061636,18.616084 l 1.531689,-0.405143 0.660425,2.495971 0.329696,1.248503 -1.531173,0.405143 0.164848,0.623735 1.531689,-0.405143 0.660425,2.497005 0.330213,1.247986 -3.062863,0.809769 -0.330212,-1.247986 -0.612366,0.162264 0.329696,1.247986 -2.00814599502,0.531234 v 0.663525 L 2.1725616,27.916291 l 0.164848,0.623735 -1.531173,0.405143 0.164848,0.624252 1.531689,-0.405144 0.330213,1.248503 0.612366,-0.162264 -0.330213,-1.247986 1.531173,-0.405143 -0.164848,-0.624251 -1.531173,0.405143 -0.165364,-0.623735 3.062862,-0.810286 0.660425,2.495971 0.330212,1.248503 -6.73809,1.78232 L 8.460498e-5,32.092264 v 2.477885 L 0.3142776,35.757673 0.6444896,37.005659 8.4604981e-5,37.176191 v 0.661975 L 0.8077866,37.624226 l 0.660425,2.496489 0.330213,1.248502 -1.798339995019,0.47594 V 42.5123 L 1.9632726,41.992952 l 0.660424,2.496488 0.660425,2.495972 0.164848,0.624251 1.531689,-0.405143 0.329696,1.248502 0.660425,2.496489 -1.531173,0.404626 -1.520837,0.40256 -0.659908,-2.496489 -0.612883,0.162264 0.660425,2.495972 -2.30631899502,0.610299 v 0.666626 L 2.4712516,52.541662 l 0.330212,1.247986 0.660425,2.496488 -3.062862,0.810287 -0.165365,-0.624252 1.53169,-0.405143 -0.165365,-0.623735 -1.531173,0.405144 L 8.360498e-5,55.588504 v 2.476852 L 0.2837866,59.138158 l 0.612366,-0.162264 -0.330212,-1.247985 5.2064,-1.377177 3.675745,-0.972034 -0.165365,-0.624251 -3.675227,0.97255 -1.531173,0.404627 -0.660425,-2.496489 -0.330212,-1.247986 1.531172,-0.405143 1.520838,-0.402043 0.330212,1.248503 0.612366,-0.162264 -0.330213,-1.248503 3.062863,-0.809769 0.3302124,1.248502 0.612366,-0.162264 -0.330213,-1.248502 5.206918,-1.377177 3.675228,-0.972034 -0.164848,-0.623734 -3.675228,0.972033 -1.53169,0.405143 -0.660424,-2.496488 -0.330213,-1.248503 1.53169,-0.404626 -0.165365,-0.624251 -1.531173,0.404626 -0.660424,-2.495972 -0.330213,-1.248502 3.062862,-0.810287 0.330213,1.248503 0.612366,-0.161747 -0.330213,-1.248503 5.206917,-1.377177 3.675228,-0.972033 -0.164848,-0.624252 -3.675227,0.972551 -1.53169,0.404626 -0.660425,-2.496488 -0.330212,-1.247986 1.531689,-0.405143 -0.165364,-0.624252 -1.531173,0.405144 -0.660425,-2.495972 -0.330212,-1.248503 3.062862,-0.810286 0.330212,1.248502 0.612366,-0.162264 -0.330212,-1.247985 5.206917,-1.377177 3.675228,-0.972551 -0.164848,-0.623734 -3.675744,0.972033 -1.531173,0.405144 -0.660425,-2.496489 -0.330212,-1.247986 1.531689,-0.405143 -0.165364,-0.624251 -1.531173,0.405143 -0.660425,-2.496488 -0.330212,-1.247986 3.062862,-0.810287 0.330212,1.248503 0.612366,-0.161747 -0.329696,-1.248503 4.935616,-1.305347 v -0.667659 l -1.425752,0.377238 -0.659909,-2.496489 -0.330212,-1.248502 1.531173,-0.404627 -0.164848,-0.624251 -1.531689,0.405143 -0.660425,-2.4964888 -0.612366,0.1622648 0.660425,2.495971 -6.73809,1.782321 -0.660425,-2.496489 -0.660425,-2.4964888 -0.164848,-0.623734 -1.531172,0.405143 -0.330213,-1.248503 -0.660425,-2.496488 1.531173,-0.404626 -0.164848,-0.624252 -1.531172,0.404627 -0.330213,-1.247986 -0.612882,0.162264 0.330212,1.247986 -3.062862,0.810286 -0.329696,-1.248502 z M 1.0584176,0.16501365 8.460498e-5,0.44509995 V 1.1127595 L 1.2237826,0.78926495 Z M 26.458418,0.79649965 22.78319,1.7685334 22.948038,2.392268 26.623266,1.4202343 Z m -9.046993,1.72495935 -3.675228,0.9720332 0.164848,0.624252 3.675228,-0.972034 z m 11.403439,0.9896032 0.330212,1.248503 0.660425,2.496489 -3.062862,0.809769 -0.164848,-0.624251 1.531173,-0.404627 -0.164848,-0.624251 -1.53169,0.405143 -0.330212,-1.248502 -0.612366,0.162264 0.330213,1.248502 -1.531173,0.404627 0.164848,0.624251 1.531172,-0.405143 0.165365,0.624251 -3.062862,0.810287 -0.660425,-2.497006 -0.330212,-1.247985 z m -12.887069,2.073259 0.659908,2.496488 0.330212,1.248503 -6.737573,1.7823198 -0.3302124,-1.2485018 -0.660425,-2.496489 3.0628624,-0.80977 0.164848,0.623735 -1.531173,0.405143 0.164848,0.624251 1.531689,-0.405143 0.329696,1.247986 0.612883,-0.161747 -0.330213,-1.248503 1.531173,-0.404626 -0.164848,-0.624252 -1.531689,0.404627 -0.164848,-0.623735 z m 14.552083,2.829285 -1.875337,0.496093 0.164847,0.624252 1.71049,-0.452169 z m -11.865425,1.133781 0.660424,2.4964878 0.659909,2.496489 -0.918807,0.242879 -0.659908,-2.495972 -0.660425,-2.4964878 z m -1.531173,0.405143 0.659908,2.4964888 0.660425,2.496488 0.165364,0.624251 1.531173,-0.405143 0.330213,1.247986 0.660424,2.496488 -1.531689,0.405144 0.165364,0.624251 1.531173,-0.405143 0.330213,1.248502 0.660424,2.495972 -6.73809,1.78232 -0.660424,-2.495972 -0.660425,-2.496488 -0.164848,-0.624251 -1.531173,0.405143 L 12.1611,18.600064 11.500675,16.104093 13.031848,15.698949 12.867,15.074698 11.335827,15.479841 11.005615,14.231855 10.34519,11.73485 Z m -1.036629,2.2768638 -3.675228,0.972033 0.165364,0.624252 3.675228,-0.972034 z M 0.3556186,12.374088 8.460498e-5,12.468138 v 0.667659 L 0.5204656,12.998338 Z m 27.0944704,0.844393 0.330212,1.247985 0.660425,2.496489 -3.062862,0.810286 -0.164848,-0.624251 1.531173,-0.405143 -0.164848,-0.623735 -1.531689,0.405144 -0.330213,-1.248503 -0.612365,0.161747 0.330212,1.248503 -1.531173,0.405143 0.164848,0.623735 1.531173,-0.404627 0.165364,0.624251 -3.062862,0.80977 -0.660425,-2.496488 -0.330212,-1.247986 z M 5.1863316,15.771296 1.5111036,16.74333 8.460498e-5,17.143306 v 0.667142 L 1.6759516,17.367065 5.3511786,16.395031 Z m 5.7014614,0.492994 0.660424,2.496488 0.330213,1.248503 -6.7380904,1.78232 -0.330213,-1.248503 -0.660425,-2.496488 3.062863,-0.80977 0.164847,0.623735 -1.531172,0.405143 0.164847,0.624251 1.53169,-0.405143 0.330212,1.247986 0.612366,-0.161748 -0.330212,-1.248502 1.531172,-0.405143 -0.164848,-0.623735 -1.531172,0.404627 -0.165365,-0.623735 z m 19.592085,1.497583 -3.239595,0.857312 0.164848,0.624251 3.074747,-0.813904 z m -16.905428,2.464449 0.659908,2.497005 0.660425,2.495971 -0.918807,0.24288 -0.660425,-2.495972 -0.659908,-2.496488 z m -1.531689,0.405143 0.660425,2.496488 0.660424,2.496489 0.164848,0.624251 1.53169,-0.405143 0.329695,1.247986 0.660425,2.496488 -1.531173,0.405143 0.164848,0.623735 1.53169,-0.404627 0.330212,1.248503 0.659908,2.495972 -6.737573,1.78232 -0.6604254,-2.496489 -0.660425,-2.496488 -0.164848,-0.623735 -1.531689,0.405144 -0.330213,-1.248503 -0.659908,-2.496488 1.531173,-0.404627 -0.165364,-0.624251 -1.531173,0.404626 -0.330213,-1.247986 -0.660424,-2.496488 z m 8.01088,0.552421 -3.675228,0.972034 0.165365,0.624251 3.675228,-0.972034 z m -9.046993,1.725476 -3.6752284,0.972034 0.165365,0.624251 3.6752284,-0.972034 z m 11.403955,0.989604 0.329696,1.247985 0.660425,2.496489 -3.062862,0.810286 -0.164848,-0.624251 1.531173,-0.405143 -0.164848,-0.623735 -1.531173,0.404627 -0.330212,-1.247986 -0.612883,0.161747 0.330213,1.248503 -1.531173,0.405143 0.164848,0.623735 1.531689,-0.405144 0.164848,0.624252 -3.062862,0.810286 -0.659908,-2.496488 -0.330213,-1.247986 z M 0.1468456,26.452815 8.460498e-5,26.491575 v 0.667143 L 0.3116936,27.076548 Z m 30.3330324,0.657841 -4.603853,1.218013 -3.675228,0.972034 0.164848,0.624251 3.675228,-0.972033 1.531689,-0.405144 0.659908,2.495972 0.330213,1.248503 -1.531173,0.405143 0.164848,0.623735 1.531689,-0.404627 0.660425,2.496489 0.329696,1.247985 -3.062346,0.810287 -0.330212,-1.248503 -0.612366,0.162264 0.329696,1.247986 -5.206401,1.377177 -3.675228,0.972034 0.164848,0.624251 3.675228,-0.972034 1.53169,-0.405143 0.659908,2.496488 0.330212,1.248503 -1.531173,0.404627 0.164848,0.624251 1.53169,-0.405143 0.660424,2.496488 0.329696,1.247986 -3.062345,0.810286 -0.330213,-1.247985 -0.612365,0.161747 0.329695,1.247986 -5.2064,1.377177 -3.675228,0.97255 0.164848,0.624251 3.675227,-0.97255 1.53169,-0.404627 0.659908,2.495972 0.330212,1.247986 -1.52032,0.402559 -1.53169,0.404627 -0.329695,-1.247986 -0.612883,0.162264 0.330212,1.247986 -3.062862,0.810286 -0.329695,-1.247469 -0.612883,0.161747 0.330213,1.247986 -5.2064014,1.377177 -3.675228,0.972034 0.164848,0.624251 3.675228,-0.972034 1.531689,-0.405143 0.659908,2.496489 0.330213,1.248502 -1.531173,0.405143 0.164848,0.623735 1.531689,-0.405143 0.660425,2.496488 0.329696,1.248503 -3.062346,0.80977 -0.330212,-1.247986 -0.612366,0.161747 0.329696,1.248503 -5.206401,1.377176 -0.89813599502,0.237712 v 0.66766 L 1.0630686,68.280753 l 1.53169,-0.405143 0.659908,2.495971 0.330212,1.248503 -1.531173,0.405143 0.164848,0.623735 1.53169,-0.405144 0.660424,2.497006 0.329696,1.247985 -3.062345,0.80977 -0.330213,-1.247986 -0.612366,0.162264 0.329696,1.247986 L 8.460498e-5,77.24248 v 0.658357 L 1.2279166,77.575793 1.3932806,78.200044 8.460498e-5,78.568497 v 0.559139 L 0.0269546,79.228922 l 1.531172,-0.404627 0.330213,1.247986 0.612365,-0.162264 -0.330212,-1.247986 1.531689,-0.405143 -0.165364,-0.624251 -1.531173,0.405143 -0.164848,-0.623735 3.062346,-0.810286 0.660425,2.496488 0.330212,1.248503 -5.89369699502,1.558561 v 0.66766 L 6.0586276,80.972485 l 0.660425,2.496488 0.660424,2.496488 0.164848,0.623735 1.53169,-0.404627 0.330212,1.247986 0.6599084,2.496489 -1.5311734,0.405143 0.164848,0.623735 1.5316904,-0.405144 0.330212,1.248503 0.659908,2.496483 -6.7375734,1.78233 -0.660425,-2.49649 -0.660425,-2.496491 -0.164848,-0.624252 -1.531689,0.405144 -0.330212,-1.248503 -0.659908,-2.496489 1.531172,-0.404626 -0.165364,-0.624251 -1.531173,0.405143 L 8.260498e-5,85.323123 v 2.478402 L 0.5240816,89.781766 0.8542936,91.029752 8.260498e-5,91.255578 v 0.667659 L 1.0191416,91.654003 l 0.660425,2.496491 0.660425,2.49597 0.164848,0.62425 1.531689,-0.40514 0.329696,1.2485 0.660424,2.496486 -1.531172,0.40514 0.164848,0.62373 1.531689,-0.40514 0.330212,1.2485 0.612366,-0.16226 -0.330212,-1.24799 3.062862,-0.81028 0.330212,1.2485 0.659908,2.49597 -6.737573,1.78232 -0.660425,-2.49597 -0.660425,-2.49701 -0.164847,-0.62373 -1.53169,0.40514 -0.10231899502,-0.38705 v 2.47685 L 0.3158256,103.861 l 0.659908,2.49598 0.165364,0.62425 1.531173,-0.40515 0.330213,1.24799 0.660424,2.497 -1.531172,0.40463 0.164848,0.62425 1.531172,-0.40514 0.330213,1.2485 0.660424,2.49597 -4.81830999502,1.27434 v 0.66818 L 4.9832406,115.31353 l 0.330213,1.24799 0.660424,2.49649 -3.062862,0.81029 -0.164848,-0.62426 1.531173,-0.40514 -0.164848,-0.62373 -1.531689,0.40514 -0.330213,-1.2485 -0.612365,0.16174 0.330212,1.24851 -1.531173,0.40514 0.164848,0.62373 1.531173,-0.40462 0.165365,0.62373 -2.29856799502,0.60823 v 0.67593 L 2.4655646,120.66205 l 0.330213,1.2485 0.612882,-0.16175 -0.330212,-1.2485 5.2064,-1.37718 3.6752284,-0.97203 -0.164847,-0.62425 -3.6752284,0.97255 -1.531173,0.40462 -0.660425,-2.49649 -0.330212,-1.24798 1.531172,-0.40514 -0.164847,-0.62426 -1.53169,0.40515 -0.659908,-2.49597 -0.330212,-1.24851 3.062345,-0.81028 0.330213,1.2485 0.612882,-0.16226 -0.330212,-1.24799 5.2064004,-1.37718 3.675228,-0.97255 -0.164848,-0.62373 -3.675228,0.97203 -1.531689,0.40514 -0.659908,-2.49648 -0.330212,-1.24799 1.531172,-0.40514 -0.164848,-0.62425 -1.531689,0.40514 -0.6599084,-2.49649 -0.330213,-1.2485 5.2064014,-1.377176 3.675228,-0.97203 -0.164848,-0.62374 -3.675228,0.97204 -1.531689,0.40514 -0.659908,-2.49649 -0.330213,-1.2485 1.531173,-0.40463 -0.164848,-0.62425 -1.531689,0.40515 -0.660425,-2.496492 -0.330212,-1.248503 3.062862,-0.809769 0.330212,1.247985 0.612883,-0.161747 -0.330213,-1.248502 5.206401,-1.377177 3.675228,-0.972034 -0.164848,-0.623735 -3.675228,0.972034 -1.531689,0.405143 -0.660425,-2.497005 -0.329696,-1.247986 1.531173,-0.405143 -0.164848,-0.624251 -1.53169,0.405143 -0.660424,-2.495972 -0.330213,-1.248502 3.062862,-0.810287 0.330213,1.248503 0.612882,-0.161747 -0.330212,-1.248503 5.2064,-1.377177 3.675228,-0.972034 -0.164847,-0.624251 -3.675228,0.972034 -1.53169,0.405143 -0.660425,-2.496488 -0.329695,-1.247986 1.531172,-0.405143 -0.165364,-0.624252 -1.531173,0.405143 -0.660425,-2.496488 -0.330212,-1.247986 3.062862,-0.810286 0.330213,1.248502 0.612365,-0.162264 -0.330212,-1.248502 5.206917,-1.377177 0.672827,-0.177767 v -0.66766 l -0.837675,0.221692 -1.531689,0.405144 -0.660425,-2.496489 -0.329696,-1.248503 1.520321,-0.402042 0.01085,-0.0026 1.520321,-0.402559 0.307991,1.16427 v -2.478402 l -0.522965,-1.976624 -0.330213,-1.247985 0.853178,-0.225826 v -0.66611 l -1.017509,0.269235 -0.660424,-2.495972 -0.660425,-2.496489 -0.164848,-0.624251 -1.53169,0.405143 -0.330212,-1.248502 -0.659908,-2.496489 1.531173,-0.405143 -0.164848,-0.624251 -1.53169,0.405143 -0.330212,-1.247986 -0.659908,-2.496488 6.180501,-1.634526 v -0.667143 l -6.345349,1.678451 -0.330212,-1.248503 -0.660425,-2.496488 3.062862,-0.80977 0.164848,0.623735 -1.531173,0.405143 0.164848,0.624251 1.531173,-0.405143 0.330212,1.247986 0.612883,-0.161747 -0.330213,-1.248503 1.531173,-0.404626 -0.164848,-0.624252 -1.531689,0.404627 -0.164848,-0.623735 3.062862,-0.810286 0.597896,2.261877 v -3.086633 l -0.150378,0.03979 -0.330213,-1.248503 -0.660424,-2.496488 1.141015,-0.301791 v -0.666626 l -1.305863,0.345199 -0.330213,-1.248503 -0.660424,-2.496488 2.2965,-0.607198 z m 0,1.330151 -0.599963,0.158647 0.165364,0.624251 0.434599,-0.115238 z m -21.9454304,2.466516 0.660424,2.496489 0.660425,2.495972 -0.918807,0.243396 -0.660425,-2.496489 -0.660424,-2.496488 z m -1.531173,0.405144 0.660425,2.496488 0.659908,2.495972 0.165364,0.624251 1.5311734,-0.405143 0.330213,1.248502 0.660424,2.496489 -1.5316894,0.404626 0.165364,0.624252 1.5311734,-0.405144 0.330213,1.248503 0.660424,2.495972 -6.7380904,1.78232 -0.660425,-2.495972 -0.660424,-2.496488 -0.164848,-0.624252 -1.531173,0.405144 -0.330212,-1.248503 -0.660425,-2.495972 1.531173,-0.405143 -0.164848,-0.624251 -1.531173,0.405143 -0.330212,-1.248503 -0.660425,-2.496488 z m 8.0103644,0.551387 -3.675228,0.972034 0.165365,0.624251 3.675227,-0.972034 z m -9.0464774,1.725476 -3.675744,0.972034 0.165364,0.624251 3.675228,-0.972033 z m 11.4034394,0.989604 0.330212,1.247986 0.660425,2.497005 -3.062862,0.80977 -0.165365,-0.624252 1.53169,-0.405143 -0.165365,-0.623734 -1.531172,0.405143 -0.330213,-1.248503 -0.612366,0.162264 0.330213,1.247986 -1.53169,0.405143 0.165365,0.624252 1.531173,-0.405144 0.164848,0.624252 -3.062346,0.809769 -0.660425,-2.496488 -0.330212,-1.247986 z m -13.8756394,7.008874 0.659908,2.496489 0.660425,2.495972 -0.918807,0.243396 -0.660425,-2.496489 -0.660425,-2.496488 z m 6.479191,0.956531 -3.675228,0.972034 0.164848,0.624251 3.6752284,-0.97255 z m 20.0272024,1.380278 -3.675745,0.972033 0.165364,0.624252 3.675228,-0.972034 z M 0.9271596,44.269815 8.460498e-5,44.514762 v 0.668176 L 1.0920076,44.894067 Z m 11.4034394,0.989604 0.330212,1.247986 0.660425,2.497005 -3.062862,0.80977 -0.164848,-0.624252 1.531172,-0.405143 -0.164847,-0.623734 -1.5316904,0.405143 -0.330212,-1.248503 -0.612366,0.162264 0.330212,1.247986 -1.531172,0.405143 0.164847,0.624252 1.531173,-0.405144 0.165365,0.624252 -3.062862,0.809769 -0.660425,-2.496488 -0.330213,-1.247986 z m 12.511897,2.70061 0.659908,2.496489 0.330213,1.247986 -6.73809,1.78232 -0.330213,-1.248503 -0.659908,-2.495972 3.062346,-0.810286 0.165364,0.624251 -1.531689,0.405144 0.165364,0.624251 1.531173,-0.405143 0.330212,1.247985 0.612883,-0.162264 -0.330212,-1.247985 1.531172,-0.405144 -0.164848,-0.624251 -1.531689,0.405143 -0.164848,-0.623734 z M 0.1142896,49.826065 8.460498e-5,49.856035 v 0.668176 L 0.2796536,50.450311 Z m 27.4143474,2.095996 0.660425,2.496489 0.660425,2.495971 -0.918807,0.243396 -0.660425,-2.496488 -0.660425,-2.496488 z m -1.531172,0.404627 0.660424,2.497005 0.659908,2.495972 0.165365,0.624251 1.531173,-0.405143 0.330212,1.247986 0.660425,2.496488 -1.520838,0.402559 -1.531172,0.405144 -0.660425,-2.496489 -0.612366,0.162264 0.660425,2.495972 -6.73809,1.78232 -0.660425,-2.496488 -0.660425,-2.496489 -0.164847,-0.623734 -1.53169,0.405143 -0.330212,-1.248503 -0.659908,-2.496488 1.52032,-0.402043 0.01085,-0.0031 1.520838,-0.402043 0.659908,2.496488 0.612882,-0.162264 -0.660424,-2.496488 z m 4.482413,1.485697 -0.146761,0.03876 0.146761,0.555521 z m -5.518526,0.7922 -3.675228,0.972034 0.164848,0.624251 3.675228,-0.972551 z m -9.979236,0.636137 0.660425,2.495972 0.330212,1.248502 -6.7380904,1.78232 -0.330212,-1.248502 -0.660425,-2.496489 3.0628624,-0.809769 0.165365,0.623734 -1.5316904,0.405143 0.1653654,0.624252 1.531173,-0.405144 0.330212,1.247986 0.612366,-0.161747 -0.330212,-1.248503 1.531689,-0.404626 -0.165365,-0.624251 -1.531172,0.404626 -0.164848,-0.623734 z m 2.687175,3.963065 0.659908,2.496489 0.660425,2.496488 -0.918807,0.24288 -0.660425,-2.495972 -0.659908,-2.496489 z m -1.53169,0.405144 0.660425,2.496488 0.660425,2.496489 0.164848,0.624251 1.531689,-0.405143 0.330213,1.247985 0.659908,2.496489 -1.531173,0.405143 0.164848,0.623735 1.531689,-0.404627 0.330213,1.247986 0.659908,2.496488 -6.737574,1.782321 -0.660424,-2.496489 -0.660425,-2.496488 -0.164848,-0.623735 -1.531689,0.405143 -0.330213,-1.248502 -0.659908,-2.496489 1.531173,-0.405143 -0.164848,-0.623734 -1.53169,0.404626 -0.330212,-1.247986 -0.6604254,-2.496488 z m 8.010881,0.552421 -3.675228,0.972033 0.165365,0.623735 3.675227,-0.972034 z m -9.046993,1.724959 -3.675228,0.972034 0.165365,0.624251 3.675227,-0.972034 z m 11.403955,0.990637 0.330212,1.247986 0.660425,2.496489 -3.062862,0.810286 -0.165365,-0.624251 1.53169,-0.405144 -0.165365,-0.623734 -1.531172,0.404626 -0.330213,-1.247985 -0.612366,0.161747 0.330213,1.248502 -1.53169,0.405144 0.165365,0.623734 1.531173,-0.405143 0.164847,0.624251 -3.062345,0.810287 -0.660425,-2.496489 -0.330212,-1.248502 z M 4.2432366,65.435965 0.5680086,66.407999 8.460498e-5,66.558377 V 67.22552 L 0.7328566,67.031733 4.4080846,66.0597 Z m 5.699393,0.486275 0.6604254,2.495972 0.330213,1.248503 -6.7380904,1.78232 -0.330213,-1.248503 -0.660425,-2.495971 3.062863,-0.810287 0.165364,0.623735 -1.531689,0.405143 0.165364,0.624251 1.531173,-0.405143 0.330212,1.248503 0.612366,-0.162264 -0.330212,-1.247986 1.531689,-0.405144 -0.165364,-0.624251 -1.531173,0.405143 -0.164848,-0.624251 z m 20.5372484,1.25057 -0.508496,0.134359 -3.675228,0.97255 0.164848,0.623735 3.675228,-0.972034 0.343648,-0.09095 z m -17.850073,2.713013 0.660425,2.496488 0.659908,2.495972 -0.918807,0.243396 -0.659908,-2.496489 -0.660425,-2.496488 z m -1.531689,0.405143 0.660424,2.496488 0.660425,2.495972 0.164848,0.624251 1.531689,-0.405143 0.330213,1.248503 0.659908,2.496488 -1.531173,0.404627 0.164848,0.624251 1.53169,-0.405143 0.330212,1.248502 0.659908,2.495972 -6.7375734,1.78232 -0.660425,-2.495971 -0.660425,-2.496489 -0.164848,-0.624251 -1.531689,0.405143 -0.330213,-1.248503 -0.659908,-2.495971 1.531173,-0.405144 -0.164848,-0.624251 -1.531689,0.405143 -0.330213,-1.248502 -0.660425,-2.496489 z m 8.01088,0.551904 -3.675228,0.972034 0.165365,0.624251 3.675228,-0.972033 z m -9.046993,1.725476 -3.6752284,0.972034 0.165365,0.624251 3.6752284,-0.97255 z m 11.403955,0.990121 0.330213,1.247986 0.660424,2.496488 -3.062862,0.810287 -0.165364,-0.624252 1.531689,-0.405143 -0.165364,-0.623735 -1.531173,0.405144 -0.330213,-1.248503 -0.612365,0.161747 0.330212,1.248503 -1.531689,0.405143 0.165364,0.623735 1.531173,-0.404627 0.165365,0.623735 -3.062863,0.810286 -0.660424,-2.496488 -0.330213,-1.247986 z m 8.955009,1.64331 -0.612882,0.161748 0.330212,1.248502 -5.2064,1.377177 -3.675228,0.972034 0.164847,0.624251 3.675228,-0.972034 1.53169,-0.405143 0.659908,2.495972 0.330212,1.248502 -1.531172,0.405144 0.164847,0.623734 1.53169,-0.405143 0.659908,2.497005 0.330212,1.247986 -3.062345,0.810286 -0.330213,-1.248502 -0.612882,0.162264 0.330212,1.247986 -5.2064,1.377177 -3.675228,0.972033 0.164848,0.624252 3.675228,-0.972034 1.531689,-0.405143 0.659908,2.496488 0.330213,1.248503 -1.531173,0.404622 0.164848,0.62426 1.531689,-0.40515 0.659908,2.49649 0.330213,1.24799 -3.062346,0.81028 -0.330212,-1.24798 -0.612883,0.16174 0.330213,1.24799 -5.206401,1.37718 -3.675228,0.972546 0.164848,0.62373 3.675228,-0.972026 1.531689,-0.40515 0.659908,2.496486 0.330213,1.2485 -1.531173,0.40515 0.164848,0.62373 1.531689,-0.40514 0.659909,2.49649 0.330212,1.24798 -5.206401,1.37718 -3.6752284,0.97203 0.164848,0.62426 3.6752284,-0.97204 1.53169,-0.40514 0.659908,2.49649 0.330212,1.24798 -1.531173,0.40515 0.164848,0.62425 1.53169,-0.40515 0.659908,2.49649 0.330212,1.24799 -3.062345,0.81028 -0.330213,-1.2485 -0.612882,0.16227 0.330212,1.24798 -5.2064004,1.37718 -3.675228,0.97203 0.164847,0.62425 3.675228,-0.97203 1.5316904,-0.40514 0.659908,2.49649 0.330212,1.2485 -1.5311724,0.40514 0.164847,0.62374 1.5316904,-0.40515 0.659908,2.49649 0.330212,1.24799 -1.603519,0.42426 h 2.50734 l 1.404049,-0.37155 -0.164848,-0.62425 -1.531689,0.40514 -0.330213,-1.2485 -0.659908,-2.49649 6.737573,-1.78181 0.660425,2.49649 0.660425,2.49597 0.164848,0.62426 1.531689,-0.40515 0.239779,0.90589 h 0.655257 l -0.28267,-1.06764 6.73809,-1.78232 0.330212,1.24799 0.423747,1.60197 h 0.655257 l -0.465088,-1.75907 -0.330212,-1.24798 0.84801,-0.22428 v -0.66817 l -1.013375,0.2682 -0.659908,-2.49649 -0.330212,-1.24799 2.003495,-0.5302 v -0.67231 l -2.169893,0.57413 -0.660425,-2.49649 -0.330212,-1.24799 3.16053,-0.83612 v -0.66301 l -3.324345,0.87953 -0.659908,-2.49649 -0.660424,-2.49648 -0.165365,-0.62374 -1.531173,0.40514 -0.330212,-1.2485 -0.660425,-2.49649 1.53169,-0.40462 -0.165365,-0.62425 -1.531173,0.40462 -0.330212,-1.24798 -0.612366,0.16226 0.330213,1.24799 -3.062863,0.81028 -0.330212,-1.2485 -0.660425,-2.49649 6.73809,-1.78232 0.660425,2.49649 0.659908,2.49597 0.165365,0.62425 1.531172,-0.40462 0.330213,1.24798 0.660425,2.49649 -1.531173,0.40514 0.164848,0.62374 1.531172,-0.40514 0.330213,1.2485 -1.531173,0.40514 0.164848,0.62374 2.288232,-0.60514 v -0.66714 l -0.309025,0.0816 -0.330212,-1.2485 0.639237,-0.16898 v -0.67231 l -0.805635,0.2129 -0.660425,-2.49649 -0.330212,-1.2485 1.796272,-0.4749 v -0.66766 l -1.96112,0.51883 -0.660425,-2.49649 -0.660425,-2.49649 -0.164848,-0.62373 -1.531172,0.40514 -0.330213,-1.248496 -0.660425,-2.49649 1.531173,-0.40514 -0.164848,-0.62426 -1.531689,0.40515 -0.329696,-1.24799 -0.660425,-2.49649 6.73809,-1.782316 0.386023,1.460376 v -2.477368 l -0.269234,-1.018026 -0.659908,-2.495972 0.929142,-0.245979 v -0.66766 l -1.094507,0.289388 -0.330212,-1.247986 -0.660425,-2.496488 2.085144,-0.551388 v -0.668176 l -2.249992,0.595313 -0.330212,-1.248503 -0.660425,-2.495972 3.062862,-0.810286 0.164848,0.624251 -1.531173,0.404627 0.165365,0.624251 1.378727,-0.364836 V 75.42497 Z m -22.8306484,5.365564 0.660425,2.496489 0.659908,2.496488 -0.918807,0.242879 -0.659908,-2.496488 -0.660425,-2.496488 z m 6.4791914,0.957565 -3.675227,0.972033 0.165364,0.623735 3.675228,-0.972034 z m -9.0469934,1.724959 -3.675228,0.972034 0.165365,0.624251 3.675228,-0.972034 z m 25.4573614,0.611332 -0.05839,0.0155 0.05839,0.221175 z m -14.053405,0.378788 0.330212,1.248503 0.660425,2.496488 -3.062862,0.80977 -0.165365,-0.624251 1.531689,-0.404627 -0.165364,-0.624251 -1.531173,0.404626 -0.330212,-1.247985 -0.612366,0.162264 0.330212,1.248502 -1.531689,0.404627 0.165365,0.624251 1.531172,-0.405143 0.165365,0.624251 -3.062862,0.810287 -0.660425,-2.497006 -0.3302134,-1.247986 z m 12.511897,2.701127 0.659908,2.496489 0.330213,1.248502 -6.73809,1.782321 -0.330213,-1.248503 -0.659908,-2.496488 3.062346,-0.80977 0.165364,0.623734 -1.531689,0.405144 0.165364,0.624251 1.531173,-0.405143 0.330212,1.247986 0.612366,-0.161748 -0.329695,-1.248502 1.531172,-0.405143 -0.165364,-0.623735 -1.531173,0.404626 -0.164848,-0.623734 z m -26.3875364,4.307748 0.659908,2.496484 0.660424,2.49598 -0.918807,0.24339 -0.660424,-2.49649 -0.659908,-2.496485 z m 6.479707,0.958081 -3.675227,0.972033 0.164847,0.62425 3.675228,-0.97255 z m 20.0272024,1.380273 -3.675745,0.97204 0.165365,0.62425 3.675228,-0.97203 z M 8.460498e-5,93.995974 v 0.59893 L 0.1483956,94.555604 Z M 11.386987,94.922534 l 0.330212,1.24799 0.660425,2.49649 -3.0628624,0.81028 -0.164848,-0.62425 1.5311734,-0.40514 -0.164848,-0.62374 -1.5316904,0.40463 -0.329695,-1.24798 -0.612883,0.16226 0.330213,1.24799 -1.531173,0.40514 0.164848,0.62373 1.531172,-0.40514 0.165365,0.62425 -3.062862,0.810286 -0.660425,-2.496486 -0.330212,-1.2485 z m -10.9083784,0.88109 -0.47852399502,0.1266 v 0.66766 L 0.6434556,96.427874 Z m 23.4202764,1.81952 0.659908,2.495966 0.330212,1.24851 -6.73809,1.78232 -0.330212,-1.24851 -0.659908,-2.496476 3.062345,-0.80977 0.165365,0.62373 -1.53169,0.40514 0.165365,0.624246 1.531172,-0.405136 0.330213,1.247986 0.612882,-0.16175 -0.330212,-1.247976 1.531173,-0.40515 -0.164848,-0.62425 -1.53169,0.40514 -0.164848,-0.62425 z m -22.7123094,3.336226 0.660425,2.49649 0.660424,2.49597 -0.918807,0.2434 -0.660424,-2.49649 -0.660425,-2.49649 z m 25.3989664,0.62684 0.660425,2.49649 0.659908,2.49648 -0.918807,0.24288 -0.659908,-2.49597 -0.660425,-2.49649 z m -18.9192584,0.33021 -3.675228,0.97203 0.164848,0.62425 3.675227,-0.97203 z m 22.8135944,1.31103 -1.090372,0.28836 0.165364,0.62373 0.925008,-0.24443 z m -6.461621,1.04128 -3.675744,0.97203 0.165364,0.62426 3.675228,-0.97204 z m -13.995528,0.36329 0.330212,1.24798 0.660425,2.49649 -3.0628624,0.81029 -0.164848,-0.62425 1.531173,-0.40515 -0.164848,-0.62373 -1.531689,0.40462 -0.330213,-1.24798 -0.612366,0.16175 0.330213,1.2485 -1.531173,0.40514 0.164848,0.62374 1.531173,-0.40515 0.165364,0.62425 -3.062862,0.81029 -0.660425,-2.49649 -0.330212,-1.2485 z m 12.511898,2.70061 0.659908,2.49597 0.330212,1.2485 -6.73809,1.78232 -0.330212,-1.2485 -0.659908,-2.49649 3.062862,-0.80977 0.164848,0.62373 -1.531173,0.40515 0.164848,0.62425 1.531173,-0.40514 0.330212,1.24798 0.612882,-0.16175 -0.330212,-1.24798 1.531173,-0.40514 -0.164848,-0.62426 -1.531689,0.40515 -0.164848,-0.62425 z m 2.686658,3.96358 0.660424,2.49649 0.660425,2.49597 -0.918807,0.24288 -0.660425,-2.49597 -0.660424,-2.49649 z m -1.531173,0.40463 0.660425,2.49648 0.659908,2.49649 0.165364,0.62425 1.531173,-0.40514 0.330212,1.24799 0.660425,2.49648 -1.531689,0.40515 0.165364,0.62425 1.531173,-0.40514 0.330212,1.2485 0.660425,2.49649 -6.73809,1.78232 -0.660425,-2.49649 -0.659908,-2.49649 -0.165364,-0.62373 -1.531173,0.40462 -0.330212,-1.24798 -0.660425,-2.49649 1.531689,-0.40515 -0.165364,-0.62425 -1.531173,0.40515 -0.330212,-1.24799 -0.660425,-2.497 z m -21.0633144,0.8971 -2.62671299502,0.69453 v 0.66818 L 2.7916456,113.22219 Z m 20.0272014,1.38028 -3.675227,0.97255 0.164847,0.62373 3.675228,-0.97203 z m -5.158858,4.03593 0.659908,2.49648 0.330213,1.24799 -6.737574,1.78232 -0.330212,-1.2485 -0.660425,-2.49597 3.062862,-0.81029 0.164848,0.62425 -1.531173,0.40463 0.164848,0.62425 1.531173,-0.40515 0.330212,1.24851 0.612883,-0.16227 -0.330213,-1.24798 1.531173,-0.40515 -0.164848,-0.62425 -1.531689,0.40515 -0.164848,-0.62374 z m 12.984737,0.57205 -0.968416,0.25632 0.164848,0.62373 0.803568,-0.21239 z m -10.298079,3.39101 0.660425,2.49649 0.659908,2.49597 -0.918807,0.2434 -0.659908,-2.49649 -0.660425,-2.49649 z m 6.479191,0.95705 -3.675228,0.97203 0.165365,0.62425 3.675228,-0.97203 z M 8.460498e-5,123.72956 v 2.47788 l 0.27388499502,1.03508 0.332279,1.25729 h 0.655774 l -0.373104,-1.41025 -0.330212,-1.2485 1.531173,-0.40463 -0.164848,-0.62425 -1.53169,0.40463 z M 17.613997,124.65973 l -3.675228,0.97204 0.165365,0.62425 3.675228,-0.97255 z m -8.7152314,2.97812 -0.612882,0.16174 0.185002,0.70022 h 0.655774 z m 17.3865364,0.0703 -0.612365,0.16174 0.166398,0.62994 h 0.655257 z m -19.5295574,0.50074 -1.100191,0.29094 h 1.177189 z" /><rect
       style="display:inline;fill:#dddddd;fill-opacity:1;stroke-width:5.29166;paint-order:stroke fill markers"
       id="rect5296"
       width="27.689089"
       height="14.008936"
       x="1.3954351"
       y="104.77213"
       rx="0.92604047"
       ry="0.92604047" /><path
       id="rect302"
       style="display:inline;fill:#414141;fill-opacity:1;stroke-width:1.12431;paint-order:stroke fill markers"
       d="M -2.0481652e-6,0 V 0.3384802 H 30.128934 V 128.5 h 0.351028 V 0.3384802 0 h -0.484904 z"
       sodipodi:nodetypes="ccccccccc" /><g
       id="g1221"
       transform="matrix(0.31152921,0,0,0.31152921,0.18884339,-29.932937)"
       style="display:inline;stroke-width:0.849304"><path
         inkscape:connector-curvature="0"
         id="rect4047-6"
         d="m 8.8134277,375.75063 v 0.39831 h 0.995788 v 7.16968 h -0.995788 v 0.39831 h 0.995788 0.3983133 0.995792 v -0.39831 h -0.995792 v -7.16968 h 0.995792 v -0.39831 H 10.207529 9.8092157 Z"
         style="fill:#ffffff;fill-opacity:1;stroke:none;stroke-width:0.0676582" /><path
         inkscape:connector-curvature="0"
         id="path4139"
         d="m 13.177127,375.75037 v 1.07545 6.88837 0.003 h 0.398318 v -0.4008 -6.49005 -0.39583 l 3.442938,3.44294 3.445426,3.44294 0.398318,0.4008 h 0.281307 v -1.67292 -6.29338 h -0.398318 v 0.39582 5.89756 0.99329 l -3.442934,-3.44542 -3.445426,-3.44294 -0.398313,-0.39831 h -0.281316 z"
         style="fill:#ffffff;fill-opacity:1;stroke:none;stroke-width:0.0676582" /></g><g
       id="g1217"
       transform="matrix(0.31152921,0,0,0.31152921,0.58378978,-32.748317)"
       style="display:inline;fill:#1a1a1a;fill-opacity:1;stroke-width:0.849304"><path
         inkscape:connector-curvature="0"
         id="path4141-6"
         d="m 6.6651494,443.75063 v 7.9663 h 7.9663066 v -7.9663 z m 0.398318,0.39831 h 7.1696706 v 7.16968 H 7.0634674 Z"
         style="fill:#1a1a1a;fill-opacity:1;stroke:none;stroke-width:0.0676582"
         inkscape:export-filename="C:\Users\Blender\Desktop\010SoftwareLogoMovieFile\O.png"
         inkscape:export-xdpi="90"
         inkscape:export-ydpi="90" /><path
         inkscape:connector-curvature="0"
         id="path4154"
         d="m 26.153808,443.75063 v 0.39831 h 0.398314 3.385681 v 7.16968 0.39831 h 0.398313 v -0.39831 -7.16968 h 3.385686 0.398317 v -0.39831 h -3.784003 -0.398313 z"
         style="fill:#1a1a1a;fill-opacity:1;stroke:none;stroke-width:0.0676582"
         inkscape:export-filename="C:\Users\Blender\Desktop\010SoftwareLogoMovieFile\T.png"
         inkscape:export-xdpi="90"
         inkscape:export-ydpi="90" /><path
         inkscape:connector-curvature="0"
         id="path4156"
         d="m 16.409481,443.75063 v 3.78399 0.39832 3.78399 h 7.966302 v -3.78399 -0.39832 -3.78399 H 23.97747 v 0.39831 3.38568 0.39832 2.13596 1.24972 h -7.169671 v -1.24972 -2.13596 -0.39832 -3.38568 -0.39831 z"
         style="fill:#1a1a1a;fill-opacity:1;stroke:none;stroke-width:0.0676582" /><path
         inkscape:connector-curvature="0"
         id="path3615"
         d="m 16.409481,443.75063 v 3.78399 0.39832 3.78399 h 7.966302 v -3.78399 -0.39832 -3.78399 H 23.97747 v 0.39831 3.38568 0.39832 2.13596 1.24972 h -7.169671 v -1.24972 -2.13596 -0.39832 -3.38568 -0.39831 z"
         style="fill:#1a1a1a;fill-opacity:1;stroke:none;stroke-width:0.0676582" /></g><g
       id="g4781"><path
         inkscape:connector-curvature="0"
         id="path3617"
         d="m 4.951089,20.665572 v 0.124085 h 0.310217 v 2.233565 H 4.951089 v 0.124085 H 5.261306 5.3853922 5.6956105 V 23.023222 H 5.3853922 V 20.789657 H 5.6956105 V 20.665572 H 5.3853922 5.261306 Z"
         style="fill:#ffffff;fill-opacity:1;stroke:none;stroke-width:0.0210775" /><path
         inkscape:connector-curvature="0"
         id="path3619"
         d="m 6.3105088,20.665491 v 0.335034 2.145928 9.35e-4 h 0.1240877 v -0.124861 -2.02184 -0.123313 l 1.0725757,1.072577 1.0733509,1.072576 0.1240876,0.124861 h 0.087635 V 22.626225 20.665653 H 8.6681584 v 0.123309 1.837263 0.309438 L 7.5955839,21.862314 6.522233,20.789738 6.3981469,20.665653 h -0.087638 z"
         style="fill:#ffffff;fill-opacity:1;stroke:none;stroke-width:0.0210775" /><path
         inkscape:connector-curvature="0"
         id="path3985-0"
         d="m 16.201495,20.751532 v 1.17895 0.124099 1.178951 h 0.127202 v -0.124101 h -0.0031 v -1.05485 h 2.2338 v 1.05485 h 0.0031 v 0.124101 h 0.120998 v -1.178951 -0.124099 -1.17895 z m 0.1241,0.1241 h 2.233799 v 1.05485 h -2.233799 z"
         style="fill:#ffffff;fill-opacity:1;stroke:none;stroke-width:0.264583"
         inkscape:export-filename="C:\Users\Blender\Desktop\010SoftwareLogoMovieFile\A.png"
         inkscape:export-xdpi="90"
         inkscape:export-ydpi="90" /><path
         style="fill:#ffffff;fill-opacity:1;stroke:none;stroke-width:0.264583"
         d="m 27.884811,20.751532 h -2.482 v 1.17895 0.1241 1.178951 h 2.482 v -0.124101 h -0.124099 -2.233801 v -1.05485 h 2.233801 v -0.1241 h -2.233801 v -1.05485 h 2.233801 0.124099 z"
         id="path4033"
         inkscape:connector-curvature="0"
         inkscape:export-filename="C:\Users\Blender\Desktop\010SoftwareLogoMovieFile\E.png"
         inkscape:export-xdpi="90"
         inkscape:export-ydpi="90" /><path
         style="fill:#ffffff;fill-opacity:1;stroke:none;stroke-width:0.264583"
         d="m 22.335707,20.751532 v 1.17895 0.124099 1.178952 h 2.482 v -1.178952 -0.124099 h -0.124099 -1.1169 v 0.124099 h 1.1169 v 1.05485 h -2.2338 v -0.247423 -0.807427 -0.1241 -0.59568 -0.45917 h 1.029252 1.204548 0.124099 v -0.1241 z"
         id="path4037"
         inkscape:connector-curvature="0" /><path
         inkscape:connector-curvature="0"
         id="path4139-1"
         d="m 19.268599,20.751535 v 0.33507 2.146154 7.71e-4 h 0.1241 v -0.12488 -2.022053 -0.123325 l 1.07269,1.072689 1.073465,1.072689 0.124099,0.124876 h 0.08765 v -0.521213 -1.960779 h -0.124101 v 0.123324 1.837455 0.309475 l -1.072688,-1.073465 -1.073464,-1.072689 -0.1241,-0.1241 H 19.2686 Z"
         style="fill:#ffffff;fill-opacity:1;stroke:none;stroke-width:0.264583" /><path
         inkscape:connector-curvature="0"
         id="path4150"
         d="m 13.134395,20.751544 v 1.178939 0.124098 0.124099 1.05484 h 0.03723 0.08687 V 23.14665 23.10942 22.775905 22.178679 22.05458 h 1.090518 l 7.72e-4,7.72e-4 7.71e-4,-7.72e-4 1.178936,1.17894 h 0.08686 V 23.1451 l -0.124095,-0.123321 v -7.71e-4 l -0.967153,-0.96642 h 0.967198 0.124089 V 20.751552 H 13.13442 Z m 0.124098,0.124099 h 0.08765 2.146135 v 1.05484 h -1.091294 -0.176067 -0.96642 v -0.96642 z"
         style="fill:#ffffff;fill-opacity:1;stroke:none;stroke-width:0.264583"
         inkscape:export-filename="C:\Users\Blender\Desktop\010SoftwareLogoMovieFile\R.png"
         inkscape:export-xdpi="90"
         inkscape:export-ydpi="90" /></g><g
       id="g4791"><path
         inkscape:connector-curvature="0"
         id="path3623"
         d="m 2.5951546,54.380021 v 2.481735 h 2.4817372 v -2.481735 z m 0.1240877,0.124085 h 2.2335618 v 2.233565 H 2.7192423 Z"
         style="fill:#ffffff;fill-opacity:1;stroke:none;stroke-width:0.0210775"
         inkscape:export-filename="C:\Users\Blender\Desktop\010SoftwareLogoMovieFile\O.png"
         inkscape:export-xdpi="90"
         inkscape:export-ydpi="90" /><path
         inkscape:connector-curvature="0"
         id="path3625"
         d="m 8.666441,54.380021 v 0.124085 H 8.7905275 9.845266 v 2.233565 0.124085 h 0.124086 v -0.124085 -2.233565 h 1.05474 0.124088 V 54.380021 H 9.969352 9.845266 Z"
         style="fill:#ffffff;fill-opacity:1;stroke:none;stroke-width:0.0210775"
         inkscape:export-filename="C:\Users\Blender\Desktop\010SoftwareLogoMovieFile\T.png"
         inkscape:export-xdpi="90"
         inkscape:export-ydpi="90" /><path
         inkscape:connector-curvature="0"
         id="path3627"
         d="m 5.6307985,54.380021 v 1.178824 0.124088 1.178823 H 8.1125343 V 55.682933 55.558845 54.380021 H 7.9884482 v 0.124085 1.054739 0.124088 0.665414 0.389324 h -2.233562 v -0.389324 -0.665414 -0.124088 -1.054739 -0.124085 z"
         style="fill:#ffffff;fill-opacity:1;stroke:none;stroke-width:0.0210775" /><path
         inkscape:connector-curvature="0"
         id="path4414"
         d="m 16.201495,54.379888 v 1.17895 0.124099 1.178951 h 0.127202 v -0.124101 h -0.0031 v -1.05485 h 2.2338 v 1.05485 h 0.0031 v 0.124101 h 0.120998 v -1.178951 -0.124099 -1.17895 z m 0.1241,0.1241 h 2.233799 v 1.05485 h -2.233799 z"
         style="fill:#ffffff;fill-opacity:1;stroke:none;stroke-width:0.264583"
         inkscape:export-filename="C:\Users\Blender\Desktop\010SoftwareLogoMovieFile\A.png"
         inkscape:export-xdpi="90"
         inkscape:export-ydpi="90" /><path
         style="fill:#ffffff;fill-opacity:1;stroke:none;stroke-width:0.264583"
         d="m 27.884811,54.379888 h -2.482 v 1.17895 0.1241 1.178951 h 2.482 v -0.124101 h -0.124099 -2.233801 v -1.05485 h 2.233801 v -0.1241 h -2.233801 v -1.05485 h 2.233801 0.124099 z"
         id="path4416"
         inkscape:connector-curvature="0"
         inkscape:export-filename="C:\Users\Blender\Desktop\010SoftwareLogoMovieFile\E.png"
         inkscape:export-xdpi="90"
         inkscape:export-ydpi="90" /><path
         style="fill:#ffffff;fill-opacity:1;stroke:none;stroke-width:0.264583"
         d="m 22.335707,54.379888 v 1.17895 0.124099 1.178952 h 2.482 v -1.178952 -0.124099 h -0.124099 -1.1169 v 0.124099 h 1.1169 v 1.05485 h -2.2338 v -0.247423 -0.807427 -0.1241 -0.59568 -0.45917 h 1.029252 1.204548 0.124099 v -0.1241 z"
         id="path4418"
         inkscape:connector-curvature="0" /><path
         inkscape:connector-curvature="0"
         id="path4420"
         d="m 19.268599,54.379891 v 0.33507 2.146154 7.71e-4 h 0.1241 v -0.12488 -2.022053 -0.123325 l 1.07269,1.072689 1.073465,1.072689 0.124099,0.124876 h 0.08765 V 56.340669 54.37989 h -0.124101 v 0.123324 1.837455 0.309475 L 20.553814,55.576679 19.48035,54.50399 19.35625,54.37989 H 19.2686 Z"
         style="fill:#ffffff;fill-opacity:1;stroke:none;stroke-width:0.264583" /><path
         inkscape:connector-curvature="0"
         id="path4422"
         d="m 13.134395,54.3799 v 1.178939 0.124098 0.124099 1.05484 h 0.03723 0.08687 v -0.08687 -0.03723 -0.333515 -0.597226 -0.124099 h 1.090518 l 7.72e-4,7.72e-4 7.71e-4,-7.72e-4 1.178936,1.17894 h 0.08686 v -0.08842 l -0.124095,-0.123321 v -7.71e-4 l -0.967153,-0.96642 h 0.967198 0.124089 V 54.379908 H 13.13442 Z m 0.124098,0.124099 h 0.08765 2.146135 v 1.05484 h -1.091294 -0.176067 -0.96642 v -0.96642 z"
         style="fill:#ffffff;fill-opacity:1;stroke:none;stroke-width:0.264583"
         inkscape:export-filename="C:\Users\Blender\Desktop\010SoftwareLogoMovieFile\R.png"
         inkscape:export-xdpi="90"
         inkscape:export-ydpi="90" /></g><g
       id="g4660"
       transform="matrix(0.62354942,0,0,0.62354942,-19.494133,8.5900113)"
       style="stroke-width:1.60372"><path
         inkscape:connector-curvature="0"
         id="rect4047"
         d="m 44.527754,29.27918 v 0.12951 h 0.323774 v 2.331176 h -0.323774 v 0.129509 h 0.323774 0.129509 0.323775 V 31.739866 H 44.981037 V 29.40869 h 0.323775 v -0.12951 h -0.323775 -0.129509 z"
         style="fill:#ffffff;fill-opacity:1;stroke:none;stroke-width:0.424318" /><path
         inkscape:connector-curvature="0"
         id="path4137-3"
         d="M 40.567711,31.869375 V 29.27918 h 1.230343 0.12951 1.230343 v 2.590195 h -0.12951 v -0.12951 -2.331176 h -1.100833 v 2.331176 h -0.12951 v -2.331176 h -1.100833 v 2.331176 0.12951 z"
         style="fill:#ffffff;fill-opacity:1;stroke:none;stroke-width:0.424318"
         inkscape:export-filename="C:\Users\Blender\Desktop\010SoftwareLogoMovieFile\W.png"
         inkscape:export-xdpi="90"
         inkscape:export-ydpi="90" /><path
         inkscape:connector-curvature="0"
         id="path4139-6"
         d="m 46.674667,29.279178 v 0.349676 2.23971 8.14e-4 h 0.12951 v -0.130323 -2.1102 -0.128701 l 1.119451,1.11945 1.12026,1.119451 0.12951,0.130319 h 0.09146 v -0.543941 -2.046254 h -0.12951 v 0.1287 1.917554 0.322965 l -1.119449,-1.12026 -1.120259,-1.11945 -0.12951,-0.129509 h -0.09147 z"
         style="fill:#ffffff;fill-opacity:1;stroke:none;stroke-width:0.424318" /></g><g
       id="g4655"
       transform="matrix(0.62354942,0,0,0.62354942,-6.0409522,6.6124047)"
       style="stroke-width:1.60372"><path
         inkscape:connector-curvature="0"
         id="path3985-9"
         d="m 43.621186,32.450712 v 1.230342 0.12951 1.230343 h 0.132747 v -0.12951 h -0.0032 v -1.100833 h 2.331176 v 1.100833 h 0.0032 v 0.12951 h 0.126272 v -1.230343 -0.12951 -1.230342 z m 0.12951,0.129509 h 2.331175 v 1.100833 h -2.331176 z"
         style="fill:#ffffff;fill-opacity:1;stroke:none;stroke-width:0.424318"
         inkscape:export-filename="C:\Users\Blender\Desktop\010SoftwareLogoMovieFile\A.png"
         inkscape:export-xdpi="90"
         inkscape:export-ydpi="90" /><path
         style="fill:#ffffff;fill-opacity:1;stroke:none;stroke-width:0.424318"
         d="m 46.674649,32.450708 v 0.09157 l 0.129334,0.129333 1.074149,1.074196 -1.074151,1.074201 -0.129335,0.129333 v 0.09157 h 0.09157 l 1.203485,-1.203532 h 6.04e-4 6.03e-4 l 1.073008,1.074196 0.129331,0.129336 h 0.09156 v -0.09157 l -1.203417,-1.203534 1.203483,-1.203529 v -0.09157 h -0.09156 l -0.129332,0.129336 -1.073005,1.074195 h -6.03e-4 -6.03e-4 l -1.203555,-1.203531 z"
         id="path4163"
         inkscape:connector-curvature="0" /><path
         inkscape:connector-curvature="0"
         id="path4650"
         d="m 40.567711,35.040907 v -2.590195 h 1.230343 0.12951 1.230343 v 2.590195 h -0.12951 v -0.12951 -2.331176 h -1.100833 v 2.331176 h -0.12951 v -2.331176 h -1.100833 v 2.331176 0.12951 z"
         style="fill:#ffffff;fill-opacity:1;stroke:none;stroke-width:0.424318"
         inkscape:export-filename="C:\Users\Blender\Desktop\010SoftwareLogoMovieFile\W.png"
         inkscape:export-xdpi="90"
         inkscape:export-ydpi="90" /></g><g
       id="g4668"
       transform="matrix(0.62354942,0,0,0.62354942,-19.494133,41.398364)"
       style="stroke-width:1.60372"><path
         inkscape:connector-curvature="0"
         id="path4662"
         d="m 44.527754,29.27918 v 0.12951 h 0.323774 v 2.331176 h -0.323774 v 0.129509 h 0.323774 0.129509 0.323775 V 31.739866 H 44.981037 V 29.40869 h 0.323775 v -0.12951 h -0.323775 -0.129509 z"
         style="fill:#ffffff;fill-opacity:1;stroke:none;stroke-width:0.424318" /><path
         inkscape:connector-curvature="0"
         id="path4664"
         d="M 40.567711,31.869375 V 29.27918 h 1.230343 0.12951 1.230343 v 2.590195 h -0.12951 v -0.12951 -2.331176 h -1.100833 v 2.331176 h -0.12951 v -2.331176 h -1.100833 v 2.331176 0.12951 z"
         style="fill:#ffffff;fill-opacity:1;stroke:none;stroke-width:0.424318"
         inkscape:export-filename="C:\Users\Blender\Desktop\010SoftwareLogoMovieFile\W.png"
         inkscape:export-xdpi="90"
         inkscape:export-ydpi="90" /><path
         inkscape:connector-curvature="0"
         id="path4666"
         d="m 46.674667,29.279178 v 0.349676 2.23971 8.14e-4 h 0.12951 v -0.130323 -2.1102 -0.128701 l 1.119451,1.11945 1.12026,1.119451 0.12951,0.130319 h 0.09146 v -0.543941 -2.046254 h -0.12951 v 0.1287 1.917554 0.322965 l -1.119449,-1.12026 -1.120259,-1.11945 -0.12951,-0.129509 h -0.09147 z"
         style="fill:#ffffff;fill-opacity:1;stroke:none;stroke-width:0.424318" /></g><g
       id="g4676"
       transform="matrix(0.62354942,0,0,0.62354942,-6.0409522,39.420757)"
       style="stroke-width:1.60372"><path
         inkscape:connector-curvature="0"
         id="path4670"
         d="m 43.621186,32.450712 v 1.230342 0.12951 1.230343 h 0.132747 v -0.12951 h -0.0032 v -1.100833 h 2.331176 v 1.100833 h 0.0032 v 0.12951 h 0.126272 v -1.230343 -0.12951 -1.230342 z m 0.12951,0.129509 h 2.331175 v 1.100833 h -2.331176 z"
         style="fill:#ffffff;fill-opacity:1;stroke:none;stroke-width:0.424318"
         inkscape:export-filename="C:\Users\Blender\Desktop\010SoftwareLogoMovieFile\A.png"
         inkscape:export-xdpi="90"
         inkscape:export-ydpi="90" /><path
         style="fill:#ffffff;fill-opacity:1;stroke:none;stroke-width:0.424318"
         d="m 46.674649,32.450708 v 0.09157 l 0.129334,0.129333 1.074149,1.074196 -1.074151,1.074201 -0.129335,0.129333 v 0.09157 h 0.09157 l 1.203485,-1.203532 h 6.04e-4 6.03e-4 l 1.073008,1.074196 0.129331,0.129336 h 0.09156 v -0.09157 l -1.203417,-1.203534 1.203483,-1.203529 v -0.09157 h -0.09156 l -0.129332,0.129336 -1.073005,1.074195 h -6.03e-4 -6.03e-4 l -1.203555,-1.203531 z"
         id="path4672"
         inkscape:connector-curvature="0" /><path
         inkscape:connector-curvature="0"
         id="path4674"
         d="m 40.567711,35.040907 v -2.590195 h 1.230343 0.12951 1.230343 v 2.590195 h -0.12951 v -0.12951 -2.331176 h -1.100833 v 2.331176 h -0.12951 v -2.331176 h -1.100833 v 2.331176 0.12951 z"
         style="fill:#ffffff;fill-opacity:1;stroke:none;stroke-width:0.424318"
         inkscape:export-filename="C:\Users\Blender\Desktop\010SoftwareLogoMovieFile\W.png"
         inkscape:export-xdpi="90"
         inkscape:export-ydpi="90" /></g><g
       id="g2694"
       transform="matrix(1.4126712,0,0,1.4126712,-5.9585032,-3.9103959)"
       style="display:inline;stroke-width:0.707879"><path
         style="display:inline;fill:#ffffff;fill-opacity:1;stroke:none;stroke-width:0.0410493"
         d="M 7.2988343,6.5763499 V 12.375281 H 13.097763 V 6.5763499 Z m 2.0296244,0.2899486 h 3.4793593 v 1.7396781 h -0.869841 v 0.8698378 h 0.869841 v 1.7396806 h -0.869841 v 0.869838 H 10.198299 V 11.215495 H 9.3284587 v 0.869838 H 7.5887802 V 8.6059766 h 1.7396785 z m 0,1.7396781 V 9.4758144 H 10.198299 V 8.6059766 Z"
         id="path3782"
         inkscape:connector-curvature="0" /><path
         inkscape:export-ydpi="90"
         inkscape:export-xdpi="90"
         inkscape:export-filename="C:\Users\Blender\Desktop\010SoftwareLogoMovieFile\0.png"
         inkscape:connector-curvature="0"
         id="path4103-4"
         d="m 14.204288,6.5763499 v 2.162839 h 2.162841 v -2.162839 z m 0.184517,0.108142 h 1.870182 v 1.8701808 z m -0.07637,0.077051 1.869505,1.8695037 h -1.86951 z"
         style="display:inline;fill:#ffffff;fill-opacity:1;stroke:none;stroke-width:0.0153103" /><path
         style="display:inline;fill:#ffffff;fill-opacity:1;stroke:none;stroke-width:0.0153103"
         d="m 18.495302,6.5979783 v 2.1628392 h 2.162841 V 6.5979783 Z m 0.184516,0.1081422 h 1.870183 V 8.576301 Z m -0.07637,0.077051 1.869506,1.8695037 h -1.869506 z"
         id="path4107-4"
         inkscape:connector-curvature="0" /><rect
         inkscape:export-ydpi="90"
         inkscape:export-xdpi="90"
         inkscape:export-filename="C:\Users\Blender\Desktop\010SoftwareLogoMovieFile\1.png"
         style="display:inline;fill:#ffffff;fill-opacity:1;stroke:none;stroke-width:0.0153103"
         id="rect4111-7"
         width="0.10814206"
         height="2.1628413"
         x="17.377144"
         y="6.5763497" /><path
         inkscape:connector-curvature="0"
         id="path3985"
         d="m 17.377144,10.212281 v 1.027425 0.10815 1.027425 h 0.110853 v -0.10815 h -0.0027 v -0.919274 h 1.9467 v 0.919274 h 0.0027 v 0.10815 h 0.105446 v -1.027425 -0.10815 -1.027425 z m 0.10815,0.10815 h 1.9467 v 0.919275 h -1.9467 z"
         style="fill:#ffffff;fill-opacity:1;stroke:none;stroke-width:0.187293"
         inkscape:export-filename="C:\Users\Blender\Desktop\010SoftwareLogoMovieFile\A.png"
         inkscape:export-xdpi="90"
         inkscape:export-ydpi="90" /><path
         inkscape:connector-curvature="0"
         id="path4137"
         d="m 14.204209,12.375281 v -2.163 h 1.027424 0.10815 1.027425 v 2.163 h -0.108151 v -0.10815 -1.9467 h -0.919273 v 1.9467 h -0.108151 v -1.9467 h -0.919274 v 1.9467 0.10815 z"
         style="fill:#ffffff;fill-opacity:1;stroke:none;stroke-width:0.187293"
         inkscape:export-filename="C:\Users\Blender\Desktop\010SoftwareLogoMovieFile\W.png"
         inkscape:export-xdpi="90"
         inkscape:export-ydpi="90" /><path
         inkscape:connector-curvature="0"
         id="path4143"
         d="m 22.713079,10.212281 v 1.027424 0.10815 h -0.10815 -0.302821 -0.670529 -0.97335 v 0.40151 0.117611 0.400155 0.10815 h -0.10815 v -1.027425 -0.10815 -1.027425 z m -0.10815,0.10815 h -1.9467 v 0.215625 0.703649 h 0.97335 0.670529 0.302821 z"
         style="fill:#ffffff;fill-opacity:1;stroke:none;stroke-width:0.187293" /></g></g><g
     inkscape:groupmode="layer"
     id="layer2"
     inkscape:label="components"
     style="display:none"><circle
       style="display:inline;fill:#0000ff;fill-opacity:1;stroke-width:5.61403;paint-order:stroke fill markers"
       id="circle1315"
       cx="15.23998"
       cy="112.83494"
       r="3.9999952"
       inkscape:label="LeftOut" /><circle
       style="display:inline;fill:#00ff00;fill-opacity:1;stroke-width:5.61403;paint-order:stroke fill markers"
       id="path1307"
       cx="15.213199"
       cy="94.645554"
       r="3.9999952"
       inkscape:label="LeftIn" /><circle
       style="display:inline;fill:#00ff00;fill-opacity:1;stroke-width:5.61403;paint-order:stroke fill markers"
       id="circle2362"
       cx="21.966576"
       cy="76.88887"
       r="3.9999952"
       inkscape:label="Stop2ModIn" /><circle
       style="display:inline;fill:#ff0000;fill-opacity:1;stroke-width:10.5264;paint-order:stroke fill markers"
       id="circle2364"
       cx="21.966576"
       cy="66.696198"
       inkscape:label="Stop2Knob"
       r="4" /><circle
       style="display:inline;fill:#00ff00;fill-opacity:1;stroke-width:5.61403;paint-order:stroke fill markers"
       id="circle2366"
       cx="8.5133905"
       cy="76.943039"
       r="3.9999952"
       inkscape:label="Start2ModIn" /><circle
       style="display:inline;fill:#ff0000;fill-opacity:1;stroke-width:10.5264;paint-order:stroke fill markers"
       id="circle2368"
       cx="8.5133905"
       cy="66.750374"
       inkscape:label="Start2Knob"
       r="4" /><circle
       style="display:inline;fill:#00ff00;fill-opacity:1;stroke-width:5.61403;paint-order:stroke fill markers"
       id="circle2358"
       cx="21.966576"
       cy="43.948399"
       r="3.9999952"
       inkscape:label="Stop1ModIn" /><circle
       style="display:inline;fill:#ff0000;fill-opacity:1;stroke-width:10.5264;paint-order:stroke fill markers"
       id="circle2360"
       cx="21.966576"
       cy="33.75573"
       inkscape:label="Stop1Knob"
       r="4" /><circle
       style="display:inline;fill:#00ff00;fill-opacity:1;stroke-width:5.61403;paint-order:stroke fill markers"
       id="circle869"
       cx="8.5133905"
       cy="44.002571"
       r="3.9999952"
       inkscape:label="Start1ModIn" /><circle
       style="display:inline;fill:#ff0000;fill-opacity:1;stroke-width:10.5264;paint-order:stroke fill markers"
       id="circle920"
       cx="8.5133905"
       cy="33.809902"
       inkscape:label="Start1Knob"
       r="4" /></g><metadata
     id="metadata341"><rdf:RDF><cc:Work
         rdf:about=""><cc:license
           rdf:resource="http://creativecommons.org/licenses/by-sa/4.0/" /></cc:Work><cc:License
         rdf:about="http://creativecommons.org/licenses/by-sa/4.0/"><cc:permits
           rdf:resource="http://creativecommons.org/ns#Reproduction" /><cc:permits
           rdf:resource="http://creativecommons.org/ns#Distribution" /><cc:requires
           rdf:resource="http://creativecommons.org/ns#Notice" /><cc:requires
           rdf:resource="http://creativecommons.org/ns#Attribution" /><cc:permits
           rdf:resource="http://creativecommons.org/ns#DerivativeWorks" /><cc:requires
           rdf:resource="http://creativecommons.org/ns#ShareAlike" /></cc:License></rdf:RDF></metadata></svg>
